<svg xmlns="http://www.w3.org/2000/svg" width="32" height="32" viewBox="0 0 32 32" fill="none">
  <path fill-rule="evenodd" clip-rule="evenodd" d="M24.4405 8.66734L18.667 5.33398L14.0003 13.4169L15.7324 14.4169L16.399 13.2622L15.8217 12.9289L19.155 7.15536L22.6192 9.15538L19.2858 14.9289L18.7084 14.5956L18.0418 15.7503L19.7738 16.7503L24.4405 8.66734ZM13.3336 14.5716L15.0657 15.5717L14.399 16.7264L13.8217 16.393L10.4883 22.1666L13.9524 24.1666L17.2858 18.393L16.7084 18.0597L17.3751 16.905L19.1072 17.905L14.4405 25.988L8.66693 22.6546L13.3336 14.5716ZM18.3097 11.2862L18.5984 11.4528L19.1757 11.7862L19.4644 11.9528L18.9644 12.8189L15.2977 19.1698L14.7977 20.0358L14.5091 19.8691L13.9317 19.5358L13.643 19.3691L14.143 18.5031L17.8097 12.1522L18.3097 11.2862Z" stroke="currentColor" fill="currentColor"/>
</svg>