<svg width="32" height="33" viewBox="0 0 32 33" fill="none" xmlns="http://www.w3.org/2000/svg">
<rect x="4.99854" y="7.57312" width="22" height="12" stroke="currentColor"/>
<path d="M12.9985 19.5731V24.5731H18.9985V19.5731" stroke="currentColor" stroke-linejoin="round"/>
<path d="M10.9985 24.5731H20.9985" stroke="currentColor" stroke-linecap="square" stroke-linejoin="round"/>
<path fill-rule="evenodd" clip-rule="evenodd" d="M21.2653 13.8398C22.0546 13.8398 22.6944 13.1999 22.6944 12.4106C22.6944 11.6213 22.0546 10.9815 21.2653 10.9815C20.476 10.9815 19.8361 11.6213 19.8361 12.4106C19.8361 13.1999 20.476 13.8398 21.2653 13.8398ZM21.2653 14.2481C22.2801 14.2481 23.1027 13.4254 23.1027 12.4106C23.1027 11.3958 22.2801 10.5731 21.2653 10.5731C20.2504 10.5731 19.4278 11.3958 19.4278 12.4106C19.4278 13.4254 20.2504 14.2481 21.2653 14.2481Z" fill="currentColor"/>
<path fill-rule="evenodd" clip-rule="evenodd" d="M24.1235 16.8269L24.1235 16.8254C24.1235 16.1545 23.8319 15.5026 23.2992 15.0157C22.7655 14.5278 22.0345 14.2481 21.2653 14.2481C20.496 14.2481 19.7646 14.5278 19.2308 15.0157C18.6982 15.5025 18.4069 16.1543 18.4069 16.8254C18.4069 16.8957 18.4324 16.969 18.4873 17.033C18.5358 17.0896 18.6055 17.1363 18.6899 17.1623L23.8407 17.1648C23.9252 17.1387 23.9949 17.0919 24.0435 17.0351M23.8927 17.5731L18.6376 17.5706C18.4553 17.5296 18.2932 17.4339 18.1773 17.2989C18.0615 17.1638 17.9985 16.9971 17.9985 16.8254C17.9985 16.0336 18.3427 15.2742 18.9553 14.7143C19.5679 14.1544 20.399 13.8398 21.2653 13.8398C22.1315 13.8398 22.9622 14.1544 23.5747 14.7143C24.1873 15.2742 24.5318 16.0336 24.5318 16.8254C24.5325 16.9975 24.4698 17.1648 24.3539 17.3004C24.238 17.436 24.0756 17.5321 23.8927 17.5731ZM24.1235 16.8269C24.1237 16.8974 24.0984 16.9709 24.0435 17.0351L24.1235 16.8269Z" fill="currentColor"/>
<path d="M21.2653 13.8398C22.0546 13.8398 22.6944 13.1999 22.6944 12.4106C22.6944 11.6213 22.0546 10.9815 21.2653 10.9815C20.476 10.9815 19.8361 11.6213 19.8361 12.4106C19.8361 13.1999 20.476 13.8398 21.2653 13.8398ZM21.2653 13.8398C20.399 13.8398 19.5679 14.1544 18.9553 14.7143C18.3427 15.2742 17.9985 16.0336 17.9985 16.8254C17.9985 16.9971 18.0615 17.1638 18.1773 17.2989C18.2932 17.4339 18.4553 17.5296 18.6376 17.5706L23.8927 17.5731C24.0756 17.5321 24.238 17.436 24.3539 17.3004C24.4698 17.1648 24.5325 16.9975 24.5318 16.8254C24.5318 16.0336 24.1873 15.2742 23.5747 14.7143C22.9622 14.1544 22.1315 13.8398 21.2653 13.8398ZM21.2653 14.2481C22.2801 14.2481 23.1027 13.4254 23.1027 12.4106C23.1027 11.3958 22.2801 10.5731 21.2653 10.5731C20.2504 10.5731 19.4278 11.3958 19.4278 12.4106C19.4278 13.4254 20.2504 14.2481 21.2653 14.2481ZM21.2653 14.2481C22.0345 14.2481 22.7655 14.5278 23.2992 15.0157C23.8319 15.5026 24.1235 16.1545 24.1235 16.8254L24.1235 16.8269M21.2653 14.2481C20.496 14.2481 19.7646 14.5278 19.2308 15.0157C18.6982 15.5025 18.4069 16.1543 18.4069 16.8254C18.4069 16.8957 18.4324 16.969 18.4873 17.033C18.5358 17.0896 18.6055 17.1363 18.6899 17.1623L23.8407 17.1648C23.9252 17.1387 23.9949 17.0919 24.0435 17.0351M24.1235 16.8269L24.0435 17.0351M24.1235 16.8269C24.1237 16.8974 24.0984 16.9709 24.0435 17.0351" stroke="currentColor" stroke-width="0.4"/>
<rect x="7.99854" y="10.5731" width="8" height="4" stroke="currentColor" stroke-linejoin="round"/>
</svg>
