<svg width="32" height="32" viewBox="0 0 32 32" fill="none" xmlns="http://www.w3.org/2000/svg">
  <path fill-rule="evenodd" clip-rule="evenodd" d="M12.977 21.2928H10.6031V14.1509H12.977V21.2928ZM11.7901 13.1762H11.7744C10.9781 13.1762 10.4619 12.6276 10.4619 11.9418C10.4619 11.2411 10.9931 10.708 11.8056 10.708C12.6182 10.708 13.1176 11.2411 13.1331 11.9418C13.1331 12.6276 12.6182 13.1762 11.7901 13.1762ZM21.5388 21.2928H19.1644V17.4719C19.1644 16.5122 18.8213 15.8571 17.9619 15.8571C17.3056 15.8571 16.9156 16.2982 16.7438 16.7254C16.6813 16.878 16.665 17.0902 16.665 17.3042V21.2928H14.2901C14.2901 21.2928 14.3219 14.821 14.2901 14.151H16.665V15.163C16.9805 14.6775 17.5436 13.9833 18.805 13.9833C20.3676 13.9833 21.5388 15.0038 21.5388 17.1973V21.2928Z" stroke="currentColor" fill="currentColor"/>
</svg>
