<svg xmlns="http://www.w3.org/2000/svg" width="32" height="32" viewBox="0 0 32 32" fill="none">
  <path fill-rule="evenodd" clip-rule="evenodd" d="M21.9333 12.9702C21.5309 13.1348 21.0991 13.2465 20.6455 13.2963C21.1087 13.0402 21.4633 12.634 21.6313 12.1514C21.1968 12.3886 20.7172 12.5608 20.2062 12.6542C19.7969 12.2511 19.2148 12 18.5692 12C17.3306 12 16.3262 12.9273 16.3262 14.0703C16.3262 14.2325 16.3461 14.3908 16.3843 14.5422C14.5205 14.4558 12.8679 13.6313 11.7618 12.3785C11.5684 12.6838 11.4584 13.0396 11.4584 13.4193C11.4584 14.1378 11.8547 14.7718 12.4559 15.1427C12.0883 15.1314 11.7426 15.038 11.44 14.8828V14.9087C11.44 15.9117 12.2134 16.7488 13.2389 16.9393C13.051 16.986 12.8528 17.0118 12.6479 17.0118C12.503 17.0118 12.363 16.9986 12.2257 16.9734C12.5112 17.7966 13.3393 18.3952 14.3204 18.4116C13.5531 18.9667 12.5857 19.2967 11.5349 19.2967C11.3539 19.2967 11.1756 19.2866 11 19.2683C11.9927 19.8568 13.1712 20.2 14.4379 20.2C18.5638 20.2 20.819 17.0446 20.819 14.3082L20.8115 14.0401C21.2522 13.7499 21.6334 13.3853 21.9333 12.9702Z" stroke="currentColor" fill="currentColor"/>
</svg>